<svg width="18" height="14" viewBox="0 0 18 14" fill="none" xmlns="http://www.w3.org/2000/svg">
<path d="M17.2413 6.12408V13.8206H15.5309V11.2551H1.84816V13.8206H0.137817V0.137878H1.84816V8.6896H8.68954V2.7034H13.8206C14.7278 2.7034 15.5979 3.06379 16.2394 3.70529C16.8809 4.3468 17.2413 5.21686 17.2413 6.12408ZM5.26885 7.83443C4.58843 7.83443 3.93588 7.56414 3.45476 7.08301C2.97363 6.60188 2.70333 5.94933 2.70333 5.26891C2.70333 4.58849 2.97363 3.93595 3.45476 3.45482C3.93588 2.97369 4.58843 2.7034 5.26885 2.7034C5.94927 2.7034 6.60182 2.97369 7.08295 3.45482C7.56407 3.93595 7.83437 4.58849 7.83437 5.26891C7.83437 5.94933 7.56407 6.60188 7.08295 7.08301C6.60182 7.56414 5.94927 7.83443 5.26885 7.83443Z" fill="#858585"/>
</svg>
