<svg width="26" height="26" viewBox="0 0 26 26" fill="none" xmlns="http://www.w3.org/2000/svg">
<path d="M7.84183 18.2022C8.01851 17.7015 8.34615 17.2679 8.77961 16.9612C9.21306 16.6545 9.73098 16.4897 10.262 16.4897C10.793 16.4897 11.3109 16.6545 11.7443 16.9612C12.1778 17.2679 12.5054 17.7015 12.6821 18.2022H21.3792V19.9125H12.6821C12.5054 20.4133 12.1778 20.8469 11.7443 21.1536C11.3109 21.4603 10.793 21.625 10.262 21.625C9.73098 21.625 9.21306 21.4603 8.77961 21.1536C8.34615 20.8469 8.01851 20.4133 7.84183 19.9125H4.27576V18.2022H7.84183ZM12.9729 12.216C13.1495 11.7153 13.4772 11.2816 13.9106 10.9749C14.3441 10.6682 14.862 10.5035 15.393 10.5035C15.924 10.5035 16.4419 10.6682 16.8754 10.9749C17.3088 11.2816 17.6365 11.7153 17.8131 12.216H21.3792V13.9263H17.8131C17.6365 14.4271 17.3088 14.8607 16.8754 15.1674C16.4419 15.4741 15.924 15.6388 15.393 15.6388C14.862 15.6388 14.3441 15.4741 13.9106 15.1674C13.4772 14.8607 13.1495 14.4271 12.9729 13.9263H4.27576V12.216H12.9729ZM7.84183 6.22977C8.01851 5.72904 8.34615 5.29544 8.77961 4.98874C9.21306 4.68204 9.73098 4.51733 10.262 4.51733C10.793 4.51733 11.3109 4.68204 11.7443 4.98874C12.1778 5.29544 12.5054 5.72904 12.6821 6.22977H21.3792V7.94012H12.6821C12.5054 8.44085 12.1778 8.87445 11.7443 9.18115C11.3109 9.48786 10.793 9.65256 10.262 9.65256C9.73098 9.65256 9.21306 9.48786 8.77961 9.18115C8.34615 8.87445 8.01851 8.44085 7.84183 7.94012H4.27576V6.22977H7.84183ZM10.262 7.94012C10.4888 7.94012 10.7063 7.85002 10.8667 7.68964C11.027 7.52927 11.1171 7.31175 11.1171 7.08495C11.1171 6.85814 11.027 6.64062 10.8667 6.48025C10.7063 6.31987 10.4888 6.22977 10.262 6.22977C10.0352 6.22977 9.81764 6.31987 9.65727 6.48025C9.49689 6.64062 9.40679 6.85814 9.40679 7.08495C9.40679 7.31175 9.49689 7.52927 9.65727 7.68964C9.81764 7.85002 10.0352 7.94012 10.262 7.94012ZM15.393 13.9263C15.6198 13.9263 15.8373 13.8362 15.9977 13.6759C16.1581 13.5155 16.2482 13.298 16.2482 13.0712C16.2482 12.8443 16.1581 12.6268 15.9977 12.4665C15.8373 12.3061 15.6198 12.216 15.393 12.216C15.1662 12.216 14.9487 12.3061 14.7883 12.4665C14.6279 12.6268 14.5378 12.8443 14.5378 13.0712C14.5378 13.298 14.6279 13.5155 14.7883 13.6759C14.9487 13.8362 15.1662 13.9263 15.393 13.9263ZM10.262 19.9125C10.4888 19.9125 10.7063 19.8224 10.8667 19.6621C11.027 19.5017 11.1171 19.2842 11.1171 19.0574C11.1171 18.8306 11.027 18.613 10.8667 18.4527C10.7063 18.2923 10.4888 18.2022 10.262 18.2022C10.0352 18.2022 9.81764 18.2923 9.65727 18.4527C9.49689 18.613 9.40679 18.8306 9.40679 19.0574C9.40679 19.2842 9.49689 19.5017 9.65727 19.6621C9.81764 19.8224 10.0352 19.9125 10.262 19.9125Z" fill="white"/>
</svg>
