<svg width="19" height="24" viewBox="0 0 19 24" fill="none" xmlns="http://www.w3.org/2000/svg">
<path d="M16.0689 8.89657C16.0689 7.19553 15.3932 5.56416 14.1904 4.36134C12.9875 3.15852 11.3562 2.48278 9.65512 2.48278C7.95407 2.48278 6.3227 3.15852 5.11988 4.36134C3.91706 5.56416 3.24132 7.19553 3.24132 8.89657V17.4483H16.0689V8.89657ZM18.2068 18.1613L18.6344 18.7311C18.694 18.8105 18.7302 18.9049 18.7392 19.0037C18.7481 19.1026 18.7293 19.202 18.6849 19.2908C18.6405 19.3796 18.5723 19.4542 18.4878 19.5064C18.4034 19.5586 18.3061 19.5862 18.2068 19.5862H1.10339C1.00413 19.5862 0.906833 19.5586 0.822397 19.5064C0.737962 19.4542 0.669726 19.3796 0.625336 19.2908C0.580945 19.202 0.562155 19.1026 0.571069 19.0037C0.579983 18.9049 0.616249 18.8105 0.675805 18.7311L1.10339 18.1613V8.89657C1.10339 6.62851 2.00437 4.45335 3.60813 2.84959C5.21189 1.24583 7.38706 0.344849 9.65512 0.344849C11.9232 0.344849 14.0983 1.24583 15.7021 2.84959C17.3059 4.45335 18.2068 6.62851 18.2068 8.89657V18.1613ZM6.9827 20.6552H12.3275C12.3275 21.364 12.046 22.0437 11.5448 22.5449C11.0436 23.046 10.3639 23.3276 9.65512 23.3276C8.94635 23.3276 8.26661 23.046 7.76543 22.5449C7.26426 22.0437 6.9827 21.364 6.9827 20.6552Z" fill="black"/>
</svg>
