<svg width="11" height="14" viewBox="0 0 11 14" fill="none" xmlns="http://www.w3.org/2000/svg">
<path d="M5.65467 13.2413L1.87529 9.48415C1.12781 8.74106 0.618768 7.79431 0.412542 6.76362C0.206316 5.73293 0.312165 4.66459 0.716704 3.69371C1.12124 2.72282 1.8063 1.89299 2.68525 1.30915C3.5642 0.725318 4.59757 0.413696 5.65467 0.413696C6.71178 0.413696 7.74514 0.725318 8.62409 1.30915C9.50304 1.89299 10.1881 2.72282 10.5926 3.69371C10.9972 4.66459 11.103 5.73293 10.8968 6.76362C10.6906 7.79431 10.1815 8.74106 9.43406 9.48415L5.65467 13.2413ZM8.59433 8.64936C9.17566 8.07138 9.57154 7.33502 9.73191 6.53339C9.89228 5.73175 9.80993 4.90084 9.49528 4.14573C9.18062 3.39062 8.6478 2.74522 7.96418 2.29114C7.28056 1.83706 6.47685 1.59469 5.65467 1.59469C4.8325 1.59469 4.02878 1.83706 3.34516 2.29114C2.66154 2.74522 2.12872 3.39062 1.81407 4.14573C1.49941 4.90084 1.41706 5.73175 1.57743 6.53339C1.7378 7.33502 2.13368 8.07138 2.71502 8.64936L5.65467 11.5717L8.59433 8.64936ZM5.65467 6.90776C5.33966 6.90776 5.03756 6.78336 4.81481 6.56192C4.59207 6.34049 4.46693 6.04016 4.46693 5.72701C4.46693 5.41386 4.59207 5.11353 4.81481 4.8921C5.03756 4.67066 5.33966 4.54626 5.65467 4.54626C5.96968 4.54626 6.27179 4.67066 6.49453 4.8921C6.71727 5.11353 6.84241 5.41386 6.84241 5.72701C6.84241 6.04016 6.71727 6.34049 6.49453 6.56192C6.27179 6.78336 5.96968 6.90776 5.65467 6.90776Z" fill="white"/>
</svg>
