<svg width="18" height="17" viewBox="0 0 18 17" fill="none" xmlns="http://www.w3.org/2000/svg">
<path d="M6.94831 5.27094C7.0766 5.27094 7.20489 5.22202 7.30273 5.12411L7.57006 4.85678C7.76582 4.66102 7.76582 4.34367 7.57006 4.14791C7.37434 3.95216 7.05695 3.95216 6.8612 4.14791L6.59387 4.41525C6.27718 4.73197 6.50581 5.27094 6.94831 5.27094Z" fill="#858585"/>
<path d="M9.08626 5.53822C9.21455 5.53822 9.34283 5.48929 9.44068 5.39138L9.70801 5.12405C9.90377 4.9283 9.90377 4.61094 9.70801 4.41519C9.51229 4.21943 9.1949 4.21943 8.99914 4.41519L8.73181 4.68252C8.41512 4.99924 8.64375 5.53822 9.08626 5.53822Z" fill="#858585"/>
<path d="M6.94831 7.40888C7.0766 7.40888 7.20489 7.35996 7.30273 7.26205L7.57006 6.99472C7.76582 6.79896 7.76582 6.48161 7.57006 6.28585C7.37434 6.0901 7.05695 6.0901 6.8612 6.28585L6.59387 6.55319C6.27718 6.86991 6.50581 7.40888 6.94831 7.40888Z" fill="#858585"/>
<path d="M0.501078 9.54646H16.6024C16.8791 9.54646 17.1034 9.32211 17.1034 9.04539C17.1034 8.76866 16.8791 8.54431 16.6024 8.54431H16.0011V2.27903C16.0011 1.02033 14.9828 0 13.7223 0C13.1959 0 12.6824 0.184029 12.2765 0.517079L11.9618 0.775267C11.2576 0.360809 10.3343 0.45548 9.73026 1.05948L8.9744 1.81534C8.77871 2.01102 8.77871 2.32827 8.9744 2.52396L10.8641 4.41366C11.0597 4.60935 11.377 4.60938 11.5727 4.41366C12.3751 3.61127 12.3253 3.6578 12.3286 3.6578C12.911 3.07541 13.0199 2.19606 12.6553 1.5026L12.9121 1.29188C13.1384 1.10628 13.4241 1.00339 13.7168 1.00219C14.4014 0.996042 14.9989 1.55267 14.9989 2.27903V8.54434C14.4855 8.54434 1.0096 8.54434 0.501078 8.54434C0.224349 8.54434 0 8.76869 0 9.04542C0 9.32215 0.224349 9.54646 0.501078 9.54646Z" fill="#858585"/>
<path d="M1.36755 10.5486L1.58105 11.7227C1.89876 13.4702 3.19545 14.8274 4.84383 15.2709V15.9937C4.84383 16.2704 5.06818 16.4947 5.34491 16.4947C5.62164 16.4947 5.84598 16.2704 5.84598 15.9937V15.4223C6.00239 15.4282 11.1192 15.4275 11.2576 15.4223V15.9937C11.2576 16.2704 11.482 16.4947 11.7587 16.4947C12.0354 16.4947 12.2598 16.2704 12.2598 15.9937V15.2709C13.9082 14.8274 15.2048 13.4702 15.5226 11.7228L15.7361 10.5486H1.36755V10.5486Z" fill="#858585"/>
</svg>
